<svg width="20" height="20" viewBox="0 0 20 20" fill="none" xmlns="http://www.w3.org/2000/svg">
<path fill-rule="evenodd" clip-rule="evenodd" d="M11.3369 1.62908C12.5075 0.456623 14.4063 0.455905 15.5779 1.62748L18.0697 4.11933C19.2313 5.28091 19.2434 7.16138 18.0968 8.33778L8.86367 17.811C8.1111 18.5832 7.07893 19.0186 6.00114 19.0185L3.24899 19.0184C1.82761 19.0183 0.692478 17.8335 0.752257 16.4123L0.870411 13.6032C0.912543 12.6016 1.32884 11.6523 2.03693 10.9431L11.3369 1.62908ZM14.1648 3.04276C13.7742 2.65224 13.1413 2.65248 12.7511 3.0433L11.2646 4.53199L15.1887 8.45608L16.6656 6.94076C17.0478 6.54863 17.0438 5.92181 16.6566 5.53461L14.1648 3.04276ZM3.45115 12.3573L9.85149 5.94727L13.7927 9.88844L7.43249 16.414C7.05621 16.8001 6.54012 17.0178 6.00122 17.0178L3.24908 17.0176C2.9648 17.0176 2.73778 16.7807 2.74973 16.4964L2.86789 13.6874C2.88895 13.1866 3.0971 12.7119 3.45115 12.3573ZM18.5147 18.9452C19.0668 18.9452 19.5143 18.4973 19.5143 17.9448C19.5143 17.3923 19.0668 16.9445 18.5147 16.9445H12.393C11.8409 16.9445 11.3934 17.3923 11.3934 17.9448C11.3934 18.4973 11.8409 18.9452 12.393 18.9452H18.5147Z" fill="#5669FF"/>
</svg>
