<svg width="24" height="25" viewBox="0 0 24 25" fill="none" xmlns="http://www.w3.org/2000/svg">
<path d="M21.3219 11.1781C20.8714 13.0857 19.3022 14.9479 17.4918 16.5264C15.6974 18.091 13.7428 19.3117 12.641 19.9503C12.2391 20.1832 11.7609 20.1832 11.359 19.9503C10.2572 19.3117 8.30256 18.091 6.50822 16.5264C4.69778 14.9479 3.12864 13.0857 2.67814 11.1781C1.84654 7.65658 3.96937 4.17631 7.34247 4.12668C7.41818 4.12557 7.49508 4.125 7.57317 4.125C8.94351 4.125 10.2006 4.81597 10.9693 5.35834C11.5782 5.78792 12.4218 5.78792 13.0307 5.35834C13.7994 4.81597 15.0565 4.125 16.4268 4.125C16.5049 4.125 16.5818 4.12557 16.6575 4.12668C20.0306 4.17631 22.1535 7.65658 21.3219 11.1781Z" stroke="#5669FF" stroke-linecap="round"/>
</svg>
