<svg width="24" height="25" viewBox="0 0 24 25" fill="none" xmlns="http://www.w3.org/2000/svg">
<path d="M21.8085 11.2305C20.8324 15.3639 15.1219 19.0279 12.8918 20.3204C12.3347 20.6432 11.6653 20.6432 11.1082 20.3204C8.87811 19.0279 3.16765 15.3639 2.19153 11.2305C1.31012 7.49806 3.54708 3.61997 7.33511 3.56424C7.41331 3.56309 7.49265 3.5625 7.57317 3.5625C9.09809 3.5625 10.4595 4.32417 11.2576 4.88729C11.6936 5.19494 12.3064 5.19494 12.7424 4.8873C13.5405 4.32417 14.9019 3.5625 16.4268 3.5625C16.5073 3.5625 16.5867 3.56309 16.6649 3.56424C20.4529 3.61997 22.6899 7.49806 21.8085 11.2305Z" fill="#5669FF"/>
</svg>
